<svg width="32" height="32" viewBox="0 0 32 32" fill="none" xmlns="http://www.w3.org/2000/svg">
<path d="M9.851 5.742C11.166 4.134 13.201 3 16 3C17.7 3 19.682 3.562 21.258 4.851C22.679 6.014 23.731 7.738 23.955 10.057C25.333 10.222 26.669 10.74 27.736 11.565C29.063 12.589 30 14.114 30 16C30 16.463 29.96 16.912 29.876 17.342C28.8035 15.8075 27.2792 14.6457 25.5153 14.0183C23.7514 13.3909 21.8357 13.3292 20.0351 13.8418C18.2345 14.3543 16.6386 15.4157 15.4695 16.878C14.3005 18.3403 13.6166 20.1307 13.513 22H9C6.293 22 4.485 21.18 3.372 19.909C2.284 18.665 2 17.145 2 16C2 13.644 3.93 10.47 8.057 10.047C8.229 8.591 8.797 7.031 9.851 5.742ZM30 22.5C30 20.5109 29.2098 18.6032 27.8033 17.1967C26.3968 15.7902 24.4891 15 22.5 15C20.5109 15 18.6032 15.7902 17.1967 17.1967C15.7902 18.6032 15 20.5109 15 22.5C15 24.4891 15.7902 26.3968 17.1967 27.8033C18.6032 29.2098 20.5109 30 22.5 30C24.4891 30 26.3968 29.2098 27.8033 27.8033C29.2098 26.3968 30 24.4891 30 22.5ZM22.22 17.22C22.3606 17.0795 22.5512 17.0007 22.75 17.0007C22.9488 17.0007 23.1394 17.0795 23.28 17.22L27.28 21.22C27.3537 21.2887 27.4128 21.3715 27.4538 21.4635C27.4948 21.5555 27.5168 21.6548 27.5186 21.7555C27.5204 21.8562 27.5018 21.9562 27.4641 22.0496C27.4264 22.143 27.3703 22.2278 27.299 22.299C27.2278 22.3703 27.143 22.4264 27.0496 22.4641C26.9562 22.5018 26.8562 22.5204 26.7555 22.5186C26.6548 22.5168 26.5555 22.4948 26.4635 22.4538C26.3715 22.4128 26.2887 22.3537 26.22 22.28L23.5 19.56V27.25C23.5 27.4489 23.421 27.6397 23.2803 27.7803C23.1397 27.921 22.9489 28 22.75 28C22.5511 28 22.3603 27.921 22.2197 27.7803C22.079 27.6397 22 27.4489 22 27.25V19.56L19.28 22.28C19.2113 22.3537 19.1285 22.4128 19.0365 22.4538C18.9445 22.4948 18.8452 22.5168 18.7445 22.5186C18.6438 22.5204 18.5438 22.5018 18.4504 22.4641C18.357 22.4264 18.2722 22.3703 18.201 22.299C18.1297 22.2278 18.0736 22.143 18.0359 22.0496C17.9982 21.9562 17.9796 21.8562 17.9814 21.7555C17.9832 21.6548 18.0052 21.5555 18.0462 21.4635C18.0872 21.3715 18.1463 21.2887 18.22 21.22L22.22 17.22Z" fill="#2B5CCF"/>
</svg>
