<svg width="38" height="38" viewBox="0 0 38 38" fill="none" xmlns="http://www.w3.org/2000/svg">
<circle cx="19" cy="19" r="19" fill="#2B5CCF"/>
<path d="M18.5089 6.92747C18.6454 6.80893 18.8201 6.74365 19.0008 6.74365C19.1816 6.74365 19.3562 6.80893 19.4927 6.92747L21.9277 9.04247C22.0035 9.10841 22.0919 9.15844 22.1874 9.18957C22.283 9.22071 22.3838 9.23232 22.4839 9.22372L25.6989 8.94372C25.8789 8.92826 26.0585 8.9783 26.2045 9.08463C26.3506 9.19095 26.4534 9.34643 26.4939 9.52247L27.2214 12.665C27.2439 12.7632 27.2859 12.8558 27.345 12.9375C27.404 13.0191 27.4789 13.0879 27.5652 13.14L30.3302 14.8025C30.4849 14.8956 30.6008 15.0415 30.6566 15.2133C30.7124 15.385 30.7044 15.5712 30.6339 15.7375L29.3739 18.7075C29.3347 18.8 29.3146 18.8995 29.3146 19C29.3146 19.1005 29.3347 19.1999 29.3739 19.2925L30.6339 22.2625C30.7047 22.4289 30.713 22.6154 30.6571 22.7874C30.6013 22.9594 30.4852 23.1055 30.3302 23.1987L27.5652 24.8612C27.4791 24.9131 27.4042 24.9818 27.3452 25.0632C27.2861 25.1446 27.2441 25.237 27.2214 25.335L26.4939 28.4775C26.4534 28.6535 26.3506 28.809 26.2045 28.9153C26.0585 29.0216 25.8789 29.0717 25.6989 29.0562L22.4839 28.7762C22.3839 28.7675 22.2831 28.7789 22.1876 28.8098C22.092 28.8407 22.0036 28.8905 21.9277 28.9562L19.4914 31.0725C19.355 31.191 19.1803 31.2563 18.9996 31.2563C18.8188 31.2563 18.6441 31.191 18.5077 31.0725L16.0727 28.9562C15.9967 28.8905 15.9084 28.8407 15.8128 28.8098C15.7173 28.7789 15.6165 28.7675 15.5164 28.7762L12.3014 29.0562C12.1214 29.0717 11.9419 29.0216 11.7959 28.9153C11.6498 28.809 11.547 28.6535 11.5064 28.4775L10.7789 25.335C10.7565 25.2368 10.7145 25.1441 10.6554 25.0625C10.5963 24.9809 10.5215 24.912 10.4352 24.86L7.67019 23.1975C7.51547 23.1043 7.39956 22.9584 7.34376 22.7867C7.28796 22.6149 7.29601 22.4288 7.36644 22.2625L8.62644 19.2925C8.66564 19.1999 8.68583 19.1005 8.68583 19C8.68583 18.8995 8.66564 18.8 8.62644 18.7075L7.36644 15.7375C7.29567 15.571 7.28743 15.3846 7.34325 15.2125C7.39906 15.0405 7.51518 14.8944 7.67019 14.8012L10.4352 13.1387C10.5213 13.0868 10.5961 13.0182 10.6552 12.9368C10.7142 12.8554 10.7563 12.763 10.7789 12.665L11.5064 9.52247C11.547 9.34643 11.6498 9.19095 11.7959 9.08463C11.9419 8.9783 12.1214 8.92826 12.3014 8.94372L15.5164 9.22372C15.6166 9.23232 15.7174 9.22071 15.813 9.18957C15.9085 9.15844 15.9968 9.10841 16.0727 9.04247L18.5089 6.92747V6.92747Z" stroke="white" stroke-width="1.5"/>
<path d="M15.25 20.25L17.75 22.75L24 16.5" stroke="white" stroke-width="1.5" stroke-linecap="round" stroke-linejoin="round"/>
</svg>
