<svg width="32" height="32" viewBox="0 0 32 32" fill="none" xmlns="http://www.w3.org/2000/svg">
<path fill-rule="evenodd" clip-rule="evenodd" d="M18.5893 0H13.7141C13.8472 0.228612 13.9789 0.454461 14.1095 0.678294L14.1104 0.6798C14.5148 1.37324 14.908 2.04735 15.2959 2.72433C15.3572 2.83094 15.4375 2.8293 15.5236 2.82755C15.5356 2.82731 15.5476 2.82706 15.5598 2.8271C15.692 2.82759 15.8243 2.82675 15.9566 2.8259L15.9567 2.8259C16.231 2.82415 16.5053 2.8224 16.7791 2.83253C16.9515 2.839 17.0364 2.778 17.1172 2.63611C17.4132 2.11687 17.7135 1.60003 18.0138 1.08319C18.1875 0.784101 18.3613 0.485011 18.5342 0.185446C18.5418 0.172441 18.552 0.159795 18.5623 0.146931C18.595 0.106251 18.6295 0.0633793 18.5893 0ZM15.6999 31.8531C15.9502 31.869 16.2017 31.885 16.4351 32L16.676 32H16.8692L16.8629 31.9931C16.8661 31.9953 16.8693 31.9976 16.8725 32H18.0598C18.0727 31.951 18.1103 31.9456 18.1537 31.9417C19.1629 31.8513 20.1098 31.547 20.9837 31.0452C24.3871 29.0865 27.7878 27.1232 31.1858 25.1552C31.7964 24.8018 31.9768 24.1178 31.637 23.5452C31.3066 22.9881 30.6336 22.8201 30.0332 23.1645C28.3412 24.1401 26.6496 25.1162 24.9583 26.0926L24.9468 26.0992C24.8626 26.1478 24.7856 26.1922 24.7523 26.3065C24.3495 27.6875 23.6222 28.2324 22.1957 28.2324H14.8545C14.7768 28.2324 14.6991 28.2316 14.6214 28.2307C14.4387 28.2288 14.2559 28.2268 14.0737 28.2357C13.9081 28.2437 13.8538 28.1873 13.8627 28.024C13.8746 27.8058 13.8831 27.5847 13.861 27.3681C13.8357 27.1198 13.923 27.0608 14.1669 27.0619C15.8553 27.0697 17.5437 27.069 19.2321 27.0682C19.7304 27.068 20.2287 27.0678 20.727 27.0678C20.9029 27.0678 21.0788 27.0686 21.2546 27.0693L21.2559 27.0694C21.6837 27.0712 22.1114 27.0731 22.5389 27.0639C23.2083 27.0495 23.7006 26.4823 23.6415 25.8165C23.5845 25.1734 23.0931 24.7639 22.3628 24.763C21.9369 24.7625 21.511 24.7616 21.0851 24.7607C19.5221 24.7574 17.9591 24.7542 16.3962 24.7694C15.7841 24.7754 15.1999 24.7102 14.6288 24.4862C14.3959 24.3948 14.1578 24.317 13.9196 24.2391C13.7632 24.1879 13.6068 24.1368 13.4518 24.0818C12.0159 23.5722 10.5465 23.5056 9.05189 23.7334C7.86485 23.9144 6.82281 24.4419 5.82779 25.078C5.537 25.2639 5.24151 25.3922 4.89268 25.3431C4.6759 25.3127 4.63569 25.4109 4.63646 25.6078C4.64417 27.3584 4.64393 29.1089 4.63575 30.8593C4.63476 31.069 4.69843 31.1203 4.90049 31.1177C5.73336 31.1068 6.56624 31.1098 7.39958 31.1141C7.6067 31.1152 7.81428 31.1126 8.02191 31.11H8.02201H8.02211H8.0222H8.0223C8.545 31.1035 9.068 31.0969 9.58453 31.1493C11.4674 31.3404 13.3463 31.5732 15.2247 31.8059L15.4125 31.8291C15.5074 31.8409 15.6035 31.847 15.6999 31.8531H15.6999H15.6999H15.6999H15.6999ZM3.47211 28.2004C3.47211 28.4723 3.47184 28.7442 3.47156 29.0161C3.47075 29.8207 3.46994 30.6253 3.47623 31.4299C3.47771 31.6144 3.44301 31.6804 3.23982 31.678C2.23637 31.6662 1.23274 31.6689 0.229408 31.6763C0.0570902 31.6776 -0.000349154 31.6368 4.31867e-06 31.4541C0.00628828 29.2907 0.00628828 27.1272 4.31867e-06 24.9638C-0.000643715 24.7618 0.0715826 24.7239 0.254269 24.7253C1.24729 24.7332 2.24036 24.7329 3.23346 24.7244C3.42958 24.7224 3.47841 24.7799 3.47682 24.971C3.46979 25.779 3.47066 26.5873 3.47153 27.3955C3.47182 27.6638 3.47211 27.9321 3.47211 28.2004ZM16.1768 5.14871C16.0615 5.14871 15.9462 5.14925 15.8309 5.1498C15.5681 5.15105 15.3053 5.1523 15.0425 5.14706C14.6754 5.13999 14.4263 4.90364 14.4226 4.57591C14.419 4.24817 14.6623 4.00364 15.0332 3.99887C15.7892 3.98937 16.5454 3.98964 17.3016 3.99969C17.6798 4.00505 17.9051 4.24046 17.8994 4.58156C17.8937 4.91424 17.652 5.14094 17.2795 5.14741C17.0264 5.15183 16.7734 5.15075 16.5202 5.14967C16.4057 5.14918 16.2913 5.14869 16.1768 5.14871ZM7.80499 20.1515H16.1387L24.5036 20.1516C24.5288 20.1516 24.5541 20.1519 24.5793 20.1522C24.6583 20.1532 24.7374 20.1541 24.8154 20.1457C25.1515 20.1097 25.3635 19.8895 25.368 19.5807C25.3726 19.2719 25.1639 19.0423 24.835 18.9942C23.9647 18.867 23.6475 18.5031 23.6475 17.6265C23.6485 15.6573 23.6481 13.688 23.6465 11.7187C23.6462 11.3749 23.6417 11.0306 23.5799 10.691C23.1011 8.05782 21.0186 6.31507 18.3433 6.31061C16.8867 6.30955 15.4301 6.30955 13.9736 6.31061C13.6509 6.31084 13.3285 6.32705 13.011 6.38754C10.4054 6.88389 8.69069 8.95198 8.68676 11.606C8.68696 13.6274 8.68667 15.6488 8.68588 17.6702C8.68553 18.4872 8.32716 18.8903 7.51435 18.9923C7.18764 19.0333 6.96057 19.263 6.95377 19.5595C6.94673 19.8665 7.18365 20.1133 7.52426 20.1473C7.59271 20.1541 7.6619 20.1532 7.73116 20.1522C7.75577 20.1518 7.78039 20.1515 7.80499 20.1515ZM16.743 9.33389C16.7428 9.34247 16.7427 9.35094 16.7427 9.35913H16.7426C16.7436 9.46563 16.7435 9.5719 16.7434 9.67822C16.7434 9.73862 16.7433 9.79904 16.7435 9.85953C16.7435 9.87276 16.744 9.88603 16.7444 9.8993C16.7454 9.92785 16.7464 9.95638 16.7428 9.98444C16.7037 10.2823 16.7713 10.479 17.0821 10.6386C17.5484 10.8781 17.791 11.3216 17.8738 11.8452C17.9008 12.0163 17.8591 12.0985 17.6681 12.0809C17.5554 12.0704 17.4414 12.0731 17.3274 12.0759C17.285 12.0769 17.2426 12.0779 17.2002 12.0782C17.1763 12.0784 17.1526 12.079 17.1291 12.0796C16.9155 12.0851 16.7241 12.0899 16.6325 11.7777C16.5622 11.5376 16.2927 11.459 16.0285 11.5259C15.7655 11.5925 15.6183 11.7696 15.5989 12.0358C15.5795 12.302 15.7006 12.5012 15.949 12.6034C16.0424 12.6419 16.1502 12.6534 16.2526 12.6606C17.0605 12.7173 17.703 13.2655 17.8584 14.0352C18.0114 14.7933 17.6499 15.5529 16.9403 15.9129C16.7852 15.9916 16.7308 16.0712 16.7397 16.239C16.7472 16.3826 16.7457 16.5267 16.7442 16.6708C16.7428 16.7978 16.7415 16.9247 16.7463 17.0514C16.7522 17.2058 16.7178 17.2808 16.5438 17.2718C16.2947 17.259 16.044 17.2597 15.795 17.2718C15.6259 17.2799 15.5789 17.2131 15.5848 17.0539C15.5895 16.9272 15.5882 16.8002 15.5868 16.6733C15.5854 16.5292 15.5839 16.3851 15.5911 16.2414C15.5997 16.072 15.5418 15.9893 15.3867 15.9121C14.8692 15.6544 14.5722 15.221 14.4575 14.656C14.4203 14.4723 14.4284 14.3493 14.6718 14.3806C14.815 14.399 14.9631 14.3912 15.1083 14.3824C15.3707 14.3664 15.5888 14.3548 15.7035 14.6947C15.7839 14.9329 16.0521 15.0041 16.3148 14.9318C16.5775 14.8595 16.7186 14.6743 16.7362 14.4132C16.7533 14.1623 16.6317 13.9675 16.4002 13.8659C16.2989 13.8216 16.1795 13.8091 16.067 13.8013C15.2742 13.7456 14.6589 13.221 14.4836 12.4447C14.3163 11.7019 14.6565 10.9273 15.3426 10.575C15.5455 10.4704 15.6139 10.3534 15.5889 10.1463C15.5802 10.0745 15.5826 10.0002 15.5884 9.92771C15.5946 9.84814 15.5841 9.75427 15.5738 9.6616C15.5536 9.48007 15.5339 9.30308 15.6402 9.2469C15.8428 9.13987 16.0875 9.1607 16.3327 9.18158C16.4392 9.19065 16.5457 9.19972 16.6489 9.19833C16.7454 9.19709 16.7441 9.2686 16.743 9.33389ZM12.6777 13.2305H12.7087C13.0001 13.2305 13.1457 13.2305 13.2184 13.3033C13.291 13.3759 13.291 13.521 13.291 13.8108C13.291 14.0985 13.291 14.2418 13.2194 14.3131C13.1483 14.3839 13.0067 14.3839 12.7245 14.3839C12.4298 14.3839 12.2816 14.3839 12.2071 14.3098C12.1317 14.2349 12.1317 14.0841 12.1317 13.7809C12.1317 13.505 12.1317 13.3674 12.2005 13.2988C12.2689 13.2305 12.4054 13.2305 12.6777 13.2305ZM20.1239 14.32C20.0597 14.3836 19.9324 14.3836 19.6802 14.3836H19.6801C19.3612 14.3836 19.2031 14.3836 19.1247 14.3045C19.0475 14.2267 19.0475 14.0723 19.0476 13.766C19.0476 13.4967 19.0476 13.3629 19.1145 13.2965C19.1805 13.2309 19.3117 13.2309 19.5726 13.2309C19.8787 13.2309 20.0328 13.2309 20.1104 13.3079C20.1892 13.3861 20.1892 13.5436 20.1892 13.8609C20.1892 14.1246 20.1892 14.2552 20.1239 14.32Z" fill="#2B5CCF"/>
</svg>
