<svg width="22" height="24" viewBox="0 0 22 24" fill="none" xmlns="http://www.w3.org/2000/svg">
<path d="M13.5818 0.503713C13.627 0.401947 13.6918 0.310079 13.7725 0.233358C13.8532 0.156636 13.9482 0.0965632 14.0522 0.0565702C14.1561 0.0165771 14.2669 -0.0025527 14.3782 0.000273056C14.4895 0.00309881 14.5991 0.0278248 14.7009 0.0730391C14.8976 0.161209 18.0547 1.66518 20.1725 5.21061C21.2424 7.00791 21.6934 8.8476 21.8782 10.2515C21.9838 11.0569 22.0207 11.8697 21.9884 12.6813V12.7254V12.7186C21.9884 12.9434 21.8991 13.1591 21.7401 13.318C21.5811 13.477 21.3655 13.5664 21.1407 13.5664C20.9158 13.5664 20.7002 13.477 20.5412 13.318C20.3822 13.1591 20.2929 12.9434 20.2929 12.7186V12.6338C20.3183 12.0522 20.4455 8.97816 18.716 6.08043C17.676 4.3546 16.2257 2.91246 14.494 1.88221C14.2041 1.71265 14.0261 1.62787 14.0125 1.62279C13.9107 1.5776 13.8189 1.5128 13.7421 1.4321C13.6654 1.3514 13.6054 1.25638 13.5654 1.15246C13.5254 1.04854 13.5062 0.937762 13.5091 0.826448C13.5119 0.715135 13.5366 0.605469 13.5818 0.503713V0.503713Z" fill="#2B5CCF"/>
<path d="M13.6696 4.59507C13.8014 4.41299 14.0001 4.29071 14.222 4.2551C14.4439 4.21948 14.6709 4.27347 14.8531 4.40517C14.848 4.40178 15.2532 4.65611 15.7348 5.10035C16.2214 5.54459 16.8199 6.20756 17.2981 7.09603C17.8189 8.07035 18.1269 9.14415 18.2018 10.2464C18.2086 10.3481 18.2103 10.4278 18.212 10.4906V10.5974C18.212 10.8222 18.1227 11.0379 17.9637 11.1969C17.8047 11.3558 17.5891 11.4452 17.3642 11.4452C17.1394 11.4452 16.9237 11.3558 16.7647 11.1969C16.6057 11.0379 16.5164 10.8222 16.5164 10.5974V10.5923C16.4979 9.63446 16.2462 8.69557 15.7833 7.85683C15.3203 7.0181 14.66 6.30478 13.8595 5.77858C13.6774 5.64678 13.5551 5.44807 13.5195 5.22614C13.4839 5.00421 13.5379 4.77722 13.6696 4.59507V4.59507Z" fill="#2B5CCF"/>
<path d="M0.854947 16.4591C-0.0100821 14.9036 -0.229021 13.0704 0.245358 11.355C0.719736 9.63959 1.84941 8.17938 3.39071 7.28936C4.932 6.39934 6.76138 6.15084 8.48424 6.59747C10.2071 7.0441 11.6854 8.15006 12.6001 9.67679L13.9905 12.0845L17.2223 14.4362C17.3364 14.5193 17.4279 14.6296 17.4886 14.7571C17.5493 14.8845 17.5772 15.0251 17.5698 15.1661C17.5624 15.307 17.5199 15.4439 17.4462 15.5643C17.3725 15.6847 17.2698 15.7848 17.1476 15.8554L12.8579 18.331L12.8646 18.336L8.22218 21.015V21.01L3.9324 23.4855C3.81009 23.5564 3.67198 23.5956 3.53066 23.5995C3.38933 23.6034 3.24927 23.5719 3.12322 23.5079C2.99717 23.4438 2.88914 23.3493 2.80895 23.2329C2.72877 23.1164 2.67898 22.9818 2.66412 22.8412L2.24531 18.8685L0.854947 16.4591V16.4591Z" fill="#2B5CCF"/>
<path d="M13.9329 19.6772L8.84961 22.6105C9.29217 23.1667 9.91966 23.5455 10.6179 23.6781C11.3162 23.8107 12.0389 23.6882 12.6545 23.333C13.2701 22.9777 13.7378 22.4133 13.9724 21.7424C14.207 21.0715 14.193 20.3386 13.9329 19.6772V19.6772Z" fill="#2B5CCF"/>
</svg>
