<svg
  width="117"
  height="138"
  viewBox="0 0 117 138"
  fill="none"
  xmlns="http://www.w3.org/2000/svg"
>
<path
    d="M59.6601 0.0700684L6.52009 14.8101C-4.87991 60.9701 -0.369926 110.01 33.2501 131.85C75.2901 111.68 99.3301 63.2701 106.45 17.0201L59.6601 0.0700684Z"
    fill="url(#paint0_linear_63:291)"
  />
<path
    d="M110.62 48.8101C110.73 48.4501 110.83 48.0901 110.93 47.7301C111.21 46.7701 111.48 45.8001 111.74 44.8401C111.86 44.4001 111.98 43.9501 112.1 43.5101C112.2 43.1401 112.3 42.7701 112.4 42.4001C112.49 42.0401 112.57 41.6801 112.66 41.3201C112.9 40.3701 113.13 39.4201 113.36 38.4701C113.51 37.8401 113.66 37.2101 113.8 36.5801C114.02 35.6101 114.23 34.6401 114.44 33.6701C114.57 33.0701 114.7 32.4701 114.82 31.8701C115.03 30.8101 115.23 29.7601 115.43 28.7001C115.52 28.1901 115.63 27.6801 115.72 27.1701C116 25.6101 116.26 24.0501 116.5 22.4901L106.45 17.0201C106.21 18.5801 105.95 20.1401 105.67 21.7001C105.58 22.2101 105.48 22.7201 105.38 23.2301C105.19 24.2801 104.98 25.3401 104.77 26.4001C104.65 27.0001 104.52 27.6001 104.39 28.2001C104.19 29.1701 103.97 30.1401 103.75 31.1101C103.61 31.7401 103.46 32.3701 103.31 33.0001C103.08 33.9501 102.85 34.9001 102.61 35.8401C102.42 36.5701 102.24 37.3001 102.05 38.0301C101.93 38.4701 101.81 38.9201 101.69 39.3601C101.43 40.3201 101.15 41.2901 100.87 42.2501C100.77 42.6101 100.67 42.9701 100.56 43.3301C100.17 44.6401 99.7801 45.9401 99.3601 47.2401C99.2901 47.4701 99.21 47.6901 99.14 47.9201C98.81 48.9401 98.4801 49.9501 98.1301 50.9601C97.6401 52.4101 97.1301 53.8501 96.6101 55.2901C96.5401 55.4601 96.4901 55.6301 96.4201 55.8001C95.8301 57.4001 95.2101 58.9901 94.5701 60.5701C94.3201 61.1801 94.0701 61.7901 93.8101 62.4001C93.4801 63.2001 93.1501 64.0101 92.8001 64.8101C92.5301 65.4401 92.2401 66.0701 91.9601 66.7001C91.6101 67.4801 91.2601 68.2601 90.9101 69.0301C90.5701 69.7601 90.2301 70.4801 89.8801 71.2001C89.6101 71.7701 89.3401 72.3301 89.0601 72.9001C88.6901 73.6501 88.3001 74.4001 87.9201 75.1501C87.6401 75.6901 87.3701 76.2301 87.0901 76.7601C86.5301 77.8201 85.96 78.8701 85.39 79.9201C85.3 80.0801 85.2201 80.2401 85.1301 80.4001C84.4501 81.6101 83.7601 82.8101 83.0501 84.0001C82.8801 84.2901 82.7001 84.5801 82.5201 84.8701C81.9901 85.7401 81.4601 86.6101 80.9201 87.4701C80.6901 87.8501 80.4401 88.2201 80.2001 88.6001C79.6601 89.4501 79.1001 90.2901 78.5401 91.1201C78.3601 91.3901 78.1801 91.6701 77.9901 91.9401C77.2701 93.0001 76.5301 94.0501 75.7801 95.0901C74.7101 96.5801 73.6001 98.0401 72.4701 99.4801C72.1701 99.8601 71.8701 100.24 71.5601 100.61C70.6901 101.7 69.8101 102.76 68.9101 103.82C68.5101 104.29 68.1201 104.76 67.7101 105.22C67.4801 105.48 67.2501 105.73 67.0301 105.99C66.2601 106.85 65.4701 107.71 64.6801 108.55C64.5801 108.65 64.4801 108.76 64.3801 108.87C63.5001 109.8 62.5901 110.71 61.6801 111.61C61.4401 111.85 61.2001 112.07 60.9601 112.31C60.2201 113.03 59.4701 113.73 58.7101 114.43C58.4901 114.64 58.2601 114.85 58.0301 115.06C57.0801 115.92 56.1201 116.76 55.1501 117.58C54.9101 117.79 54.6601 117.98 54.4201 118.19C53.6501 118.83 52.8701 119.46 52.0801 120.07C51.7401 120.34 51.4001 120.6 51.0701 120.86C50.3801 121.39 49.6901 121.9 48.9901 122.41C48.5501 122.73 48.1101 123.05 47.6601 123.36C46.9501 123.86 46.2401 124.34 45.5101 124.83C45.1001 125.1 44.6801 125.39 44.2601 125.66C43.7601 125.98 43.2601 126.28 42.7601 126.59C41.9501 127.09 41.1301 127.6 40.3001 128.08C39.7601 128.4 39.2101 128.7 38.6601 129C37.8701 129.44 37.0701 129.88 36.2601 130.31C35.2501 130.84 34.2401 131.36 33.2101 131.85L43.2601 137.32C44.0401 136.94 44.8301 136.56 45.6001 136.16C45.8401 136.04 46.0701 135.9 46.3101 135.78C47.1201 135.36 47.9201 134.92 48.7101 134.47C49.2601 134.17 49.8101 133.86 50.3401 133.55C51.1701 133.07 51.9901 132.56 52.8001 132.06C53.1801 131.82 53.5701 131.6 53.9501 131.36C54.0701 131.28 54.1801 131.2 54.3001 131.12C54.7201 130.85 55.1301 130.56 55.5501 130.29C56.2701 129.81 56.9901 129.33 57.7001 128.83C58.1501 128.52 58.59 128.2 59.0201 127.88C59.41 127.59 59.8101 127.32 60.2001 127.03C60.5001 126.8 60.8001 126.56 61.1001 126.33C61.4401 126.07 61.7801 125.81 62.1201 125.54C62.9101 124.92 63.6801 124.3 64.4501 123.66C64.6901 123.46 64.9401 123.26 65.1901 123.06C65.2701 122.99 65.3501 122.94 65.4201 122.87C66.3101 122.11 67.1901 121.33 68.0701 120.54C68.3001 120.33 68.5201 120.12 68.7501 119.91C69.1901 119.51 69.6301 119.12 70.0601 118.71C70.3701 118.41 70.6801 118.1 71.0001 117.79C71.2401 117.56 71.4801 117.32 71.7201 117.09C72.6001 116.22 73.47 115.35 74.33 114.45C74.36 114.42 74.3901 114.38 74.4201 114.35C74.5201 114.25 74.6201 114.14 74.7101 114.04C75.5101 113.2 76.2901 112.34 77.0601 111.47C77.2901 111.22 77.5201 110.96 77.7401 110.7C77.9401 110.48 78.14 110.26 78.33 110.03C78.54 109.79 78.7301 109.54 78.9301 109.3C79.8301 108.25 80.71 107.18 81.58 106.09C81.77 105.85 81.9801 105.62 82.1701 105.37C82.2801 105.24 82.3801 105.09 82.4801 104.95C83.6101 103.51 84.7101 102.05 85.7901 100.56C85.8301 100.51 85.8701 100.46 85.9001 100.41C86.6101 99.4201 87.3101 98.4201 88.0001 97.4101C88.1801 97.1401 88.3601 96.8601 88.5501 96.5801C88.8901 96.0701 89.2401 95.5701 89.5701 95.0601C89.7801 94.7301 89.9901 94.4001 90.2001 94.0601C90.4401 93.6901 90.6801 93.3101 90.9201 92.9301C91.4601 92.0701 92 91.2001 92.5201 90.3301C92.69 90.0401 92.8701 89.7501 93.0401 89.4601C93.1001 89.3701 93.1501 89.2701 93.2101 89.1801C93.8601 88.0801 94.4901 86.9701 95.1201 85.8601C95.2101 85.7001 95.29 85.5401 95.39 85.3801C95.89 84.4601 96.4 83.5401 96.89 82.6201C96.96 82.4901 97.0201 82.3601 97.0901 82.2301C97.3701 81.6901 97.6401 81.1501 97.9201 80.6101C98.3001 79.8601 98.6901 79.1201 99.0501 78.3601C99.3301 77.8001 99.6001 77.2301 99.8701 76.6601C100.12 76.1501 100.37 75.6401 100.61 75.1301C100.71 74.9201 100.8 74.7101 100.9 74.4901C101.26 73.7201 101.61 72.9301 101.96 72.1601C102.24 71.5301 102.52 70.9001 102.79 70.2701C103.14 69.4701 103.47 68.6701 103.8 67.8701C104 67.3901 104.21 66.9101 104.4 66.4201C104.45 66.2901 104.5 66.1601 104.55 66.0401C105.19 64.4601 105.8 62.8701 106.4 61.2701C106.46 61.1001 106.52 60.9301 106.59 60.7601C107.12 59.3201 107.63 57.8801 108.12 56.4301C108.18 56.2601 108.24 56.1001 108.29 55.9301C108.58 55.0801 108.85 54.2301 109.12 53.3901C109.19 53.1701 109.27 52.9401 109.34 52.7201C109.83 51.4201 110.23 50.1201 110.62 48.8101Z"
    fill="url(#paint1_linear_63:291)"
  />
<path
    d="M58.0901 7.89008L11.5701 20.7901C6.95007 42.0101 6.21008 62.1801 9.45008 79.4301C13.1401 99.0801 21.7101 113.86 34.9301 123.43C51.8501 114.52 66.2401 100.25 77.7401 80.9401C87.8401 63.9901 95.1601 43.9601 99.0401 22.7201L58.0901 7.89008Z"
    fill="url(#paint2_linear_63:291)"
  />
<path
    d="M73.8201 14.5501C64.0501 35.1601 52.9601 55.2501 38.7101 73.1201C31.7101 81.8901 24.0401 90.0401 15.8501 97.6401C20.3101 107.94 26.7101 116.23 35.0101 122.36C51.5601 113.52 65.6801 99.4301 76.9601 80.4701C86.84 63.8801 94.1101 44.1301 98.0101 23.3001L73.8201 14.5501Z"
    fill="url(#paint3_linear_63:291)"
  />
<path
    d="M67.5001 41.9401L72.6901 50.0901L38.4601 82.0801L37.2101 81.3101L31.6901 51.6401L32.9401 52.4101L41.6601 66.0901L66.2501 41.1701L67.5001 41.9401Z"
    fill="url(#paint4_linear_63:291)"
  />
<path
    d="M66.2501 41.1701L71.4401 49.3201L37.2101 81.3101L23.2901 59.4801L31.6901 51.6401L40.4101 65.3201L66.2501 41.1701Z"
    fill="url(#paint5_linear_63:291)"
  />
<defs>
<linearGradient
      id="paint0_linear_63:291"
      x1="0.894988"
      y1="65.9615"
      x2="106.45"
      y2="65.9615"
      gradientUnits="userSpaceOnUse"
    >
<stop offset="0.00450562" stop-color="#A1F9FF" />
<stop offset="0.999" stop-color="#00EEFF" />
</linearGradient>
<linearGradient
      id="paint1_linear_63:291"
      x1="94.899"
      y1="20.9571"
      x2="55.8207"
      y2="139.278"
      gradientUnits="userSpaceOnUse"
    >
<stop offset="0.00301753" stop-color="#0079A4" />
<stop offset="0.999" stop-color="#00EEFF" />
</linearGradient>
<linearGradient
      id="paint2_linear_63:291"
      x1="77.4598"
      y1="94.0614"
      x2="33.9454"
      y2="23.8093"
      gradientUnits="userSpaceOnUse"
    >
<stop offset="0.00450562" stop-color="#A1F9FF" />
<stop offset="1" stop-color="white" />
</linearGradient>
<linearGradient
      id="paint3_linear_63:291"
      x1="79.7769"
      y1="92.5515"
      x2="58.0196"
      y2="63.4545"
      gradientUnits="userSpaceOnUse"
    >
<stop offset="0.00450562" stop-color="#A1F9FF" />
<stop offset="1" stop-color="white" />
</linearGradient>
<linearGradient
      id="paint4_linear_63:291"
      x1="45.3697"
      y1="52.7994"
      x2="66.8275"
      y2="79.9142"
      gradientUnits="userSpaceOnUse"
    >
<stop offset="0.00301753" stop-color="#0079A4" />
<stop offset="0.999" stop-color="#00EEFF" />
</linearGradient>
<linearGradient
      id="paint5_linear_63:291"
      x1="23.2931"
      y1="61.2425"
      x2="71.4435"
      y2="61.2425"
      gradientUnits="userSpaceOnUse"
    >
<stop offset="0.00450562" stop-color="#A1F9FF" />
<stop offset="0.999" stop-color="#00EEFF" />
</linearGradient>
</defs>
</svg>
