<svg width="26" height="24" viewBox="0 0 26 24" fill="none" xmlns="http://www.w3.org/2000/svg">
<path d="M24.6316 20V21.3333C24.6316 22.8 23.4 24 21.8947 24H2.73684C1.21789 24 0 22.8 0 21.3333V2.66667C0 1.2 1.21789 0 2.73684 0H21.8947C23.4 0 24.6316 1.2 24.6316 2.66667V4H12.3158C10.7968 4 9.57895 5.2 9.57895 6.66667V17.3333C9.57895 18.8 10.7968 20 12.3158 20H24.6316ZM12.3158 17.3333H26V6.66667H12.3158V17.3333ZM17.7895 14C16.6537 14 15.7368 13.1067 15.7368 12C15.7368 10.8933 16.6537 10 17.7895 10C18.9253 10 19.8421 10.8933 19.8421 12C19.8421 13.1067 18.9253 14 17.7895 14Z" fill="#2B5CCF"/>
</svg>
